<svg width="1368" height="1010" viewBox="0 0 1368 1010" fill="none" xmlns="http://www.w3.org/2000/svg">
<path d="M1103.99 597.388C1107.89 594.464 1112.76 593.001 1118.61 593.001C1128.36 593.001 1135.67 596.9 1141.51 604.699C1144.44 608.598 1145.9 618.832 1146.39 634.916L1146.88 659.285L1153.7 660.26C1158.57 661.234 1166.37 661.234 1176.12 661.234C1192.2 661.234 1202.92 665.621 1208.77 673.906C1211.21 677.805 1212.67 682.679 1212.67 688.04C1212.67 698.762 1208.29 707.048 1200 711.922C1196.1 713.871 1190.25 714.846 1181.48 714.846H1170.76L1147.85 714.358L1149.31 732.391C1150.29 748.475 1152.72 765.046 1156.14 782.591C1159.55 800.137 1162.47 808.422 1164.91 808.422C1168.32 808.422 1171.25 804.036 1174.17 794.776C1175.14 789.902 1176.12 783.079 1176.12 775.281C1176.12 767.483 1177.58 761.147 1180.51 756.76C1185.87 748.475 1193.18 744.088 1202.92 744.088C1212.18 744.088 1219.5 748.475 1225.34 756.76C1227.78 760.659 1229.24 767.97 1229.24 778.692C1229.24 815.246 1216.57 841.564 1191.71 857.16C1180.02 864.471 1169.78 867.882 1160.52 867.882C1148.83 867.882 1139.57 863.496 1131.77 853.748C1113.73 832.304 1102.04 789.415 1096.19 725.081L1094.73 710.947H1087.9C1083.52 710.947 1079.13 709.972 1075.23 707.048C1071.33 704.611 1068.41 701.687 1066.46 697.788C1064.51 694.863 1064.02 690.964 1064.02 686.091C1064.02 677.805 1065.97 671.469 1069.87 667.57C1075.72 661.234 1081.57 657.823 1087.9 657.823C1089.37 657.823 1090.34 656.848 1090.83 654.898C1090.83 652.949 1091.32 646.613 1091.32 635.891C1091.32 623.219 1091.8 614.446 1093.75 609.572C1095.21 604.699 1098.63 600.8 1103.99 597.388Z" fill="#2E0073"/>
<path d="M914.391 573.997C920.239 572.047 924.138 570.585 926.088 570.585C928.525 570.585 932.424 572.047 938.272 573.997C943.146 576.921 946.558 580.333 949.482 585.206C951.919 590.567 953.381 608.6 953.381 639.793C953.381 690.48 954.843 730.932 958.742 760.175L960.692 776.746L968.002 770.41C972.876 766.511 978.237 764.074 984.086 764.074C1002.12 764.074 1011.38 773.821 1011.38 793.316C1011.38 817.685 1001.63 833.769 982.624 842.542C974.338 846.441 967.028 847.903 960.692 847.903C934.373 847.903 916.828 824.509 907.08 776.746C903.669 761.15 901.719 746.528 900.744 732.394C899.77 718.748 899.77 693.891 899.77 658.8C899.77 625.171 899.77 604.701 900.257 597.878C900.257 591.055 901.232 586.181 903.181 583.257C905.618 579.358 909.517 576.434 914.391 573.997Z" fill="#2E0073"/>
<path d="M799.636 632.971C803.535 631.508 807.434 630.534 811.821 630.534C818.644 630.534 824.492 631.996 828.392 634.92C833.265 638.819 836.19 645.155 838.139 653.928C839.601 663.188 842.038 688.532 845.45 729.471C848.374 769.436 850.323 795.755 850.323 808.914V811.838L849.836 813.3C848.861 817.687 845.937 821.586 842.038 824.997C837.652 828.896 833.265 830.846 828.879 831.333H825.467C820.106 831.333 815.232 830.358 810.359 827.434C805.485 824.997 802.561 821.586 800.611 817.687C798.174 813.788 796.712 811.351 796.225 811.351C794.763 811.351 790.376 812.813 783.553 815.737C775.755 818.661 768.444 820.124 760.646 820.124C752.361 820.124 745.537 818.661 739.689 815.737C715.807 804.527 699.237 772.361 690.464 718.749C688.027 705.102 687.052 694.38 687.052 686.095C687.052 678.297 688.514 672.448 691.926 668.549C697.774 661.726 704.598 657.827 712.883 657.827C716.782 657.827 721.169 658.802 725.068 660.751C729.941 663.675 733.84 667.087 736.277 671.473C738.227 675.86 740.176 683.17 741.638 693.893C747.487 735.807 755.285 759.201 765.032 765.05C765.52 765.537 766.495 765.537 767.469 765.537C771.368 765.537 774.78 761.638 777.704 753.353C780.629 745.067 782.578 738.731 782.578 734.345C782.578 731.421 783.553 727.522 785.99 722.648C787.452 719.724 788.427 714.85 788.427 708.514C788.427 700.716 787.939 692.918 787.452 685.12C786.477 678.784 786.477 670.986 786.477 661.238C786.477 652.466 786.965 646.617 788.914 642.718C790.864 638.819 794.275 635.895 799.636 632.971Z" fill="#2E0073"/>
<path d="M557.535 707.054C549.737 705.104 542.426 703.642 535.603 703.642C520.982 703.642 511.722 709.491 508.797 721.188C507.823 724.112 507.822 726.061 507.822 727.036C507.822 733.372 509.772 738.733 514.158 743.607C518.058 748.481 522.931 751.405 528.292 752.38H530.729C538.527 752.38 547.3 747.506 558.022 736.784C561.921 732.885 564.358 729.96 565.333 728.011C566.308 726.061 566.795 723.137 566.795 718.751V709.978L557.535 707.054ZM595.063 653.93C604.323 648.081 612.121 644.669 617.97 644.669H618.457C619.919 644.669 622.356 646.619 626.255 649.543C629.667 652.467 632.104 655.392 633.566 658.316C635.516 662.215 636.49 673.425 636.49 691.458C636.49 704.129 636.003 713.877 635.028 720.7C634.053 727.524 631.129 741.658 626.255 763.102C619.432 791.37 616.02 808.916 615.046 815.739C614.071 822.075 611.147 826.949 606.273 830.36C601.399 834.259 596.038 835.721 590.189 835.721C581.904 835.721 575.081 832.797 569.232 826.461C565.333 822.075 563.384 816.714 563.384 810.378V800.63L555.098 804.529C548.762 807.454 540.477 808.916 529.754 808.916C518.545 808.916 510.259 807.454 504.411 804.529C491.739 798.681 481.017 788.933 472.731 774.799C464.446 761.153 460.059 745.069 459.085 727.524V719.726C459.085 688.533 471.269 667.089 496.125 655.392C501.974 652.467 514.158 651.005 531.704 651.005C548.762 651.005 561.921 652.467 571.669 655.392L586.778 660.266L595.063 653.93Z" fill="#2E0073"/>
<path d="M152.864 575.457C155.789 573.507 160.175 572.045 166.024 572.045C173.822 572.045 180.158 573.994 184.057 577.893C188.93 582.28 191.367 587.154 192.342 593.002C193.317 598.851 193.804 615.909 193.804 644.177C193.804 700.713 195.266 740.19 198.678 763.584L199.653 771.382L237.181 771.87C255.214 772.357 266.424 772.844 270.323 772.844C274.222 773.332 277.633 774.307 280.557 776.256C287.868 781.617 291.767 788.928 291.767 798.675C291.767 808.423 287.381 816.221 279.583 821.582C276.171 824.019 258.625 825.481 227.433 825.481H200.14C186.006 825.481 176.746 824.506 172.36 821.582C149.453 809.885 138.243 763.097 138.243 681.217C138.243 672.932 138.243 658.798 139.218 638.328C140.193 612.497 141.167 596.414 142.63 590.078C143.604 584.229 147.016 579.356 152.864 575.457Z" fill="#2E0073"/>
<path d="M377.994 668.55C387.741 668.55 395.052 672.936 399.925 680.734C401.875 684.633 403.337 689.994 403.337 695.843C403.337 699.742 401.875 723.624 399.438 767.487C397.001 800.628 395.051 820.611 394.077 826.947C392.615 833.77 389.203 838.645 384.33 842.544C381.405 845.468 376.531 846.442 369.708 846.442C359.473 846.442 351.675 842.056 346.314 832.796C344.365 829.872 343.389 824.998 343.389 819.149C343.389 814.276 343.877 803.066 344.852 786.495C344.852 781.621 345.827 770.412 346.801 752.379C347.776 734.346 348.263 722.161 349.238 715.338C350.213 698.767 351.675 688.045 353.625 683.171C355.087 678.297 358.986 674.399 365.322 671.475C369.221 669.525 373.12 668.55 377.994 668.55Z" fill="#2E0073"/>
<path d="M387.129 530.643C391.748 530.469 396.545 531.339 400.809 532.904C404.362 534.121 407.738 535.86 410.403 538.642C413.068 541.425 415.022 545.946 414.311 550.467C413.601 556.032 410.58 560.032 407.915 564.031C407.56 564.553 407.382 564.901 407.027 565.249C409.337 564.553 411.646 563.51 414.489 562.466C420.174 560.206 426.748 560.901 431.012 564.031C435.275 567.162 437.407 571.683 438.473 576.03C439.539 580.378 439.539 584.899 438.473 589.246C437.407 593.42 434.742 598.289 429.057 600.202C425.149 601.419 421.24 601.593 417.154 601.593C417.509 601.941 418.042 602.289 418.397 602.811C421.418 605.767 423.55 609.94 423.55 614.288C423.905 624.2 416.266 630.46 408.804 634.286C405.25 636.025 401.342 637.416 397.256 637.764C393.169 638.112 388.372 637.416 384.819 633.938C382.687 631.851 380.911 629.591 379.667 627.33C378.423 628.721 377.002 629.765 375.581 630.808C369.185 634.808 361.723 635.503 355.327 634.112C348.931 632.721 343.068 629.591 339.515 624.374C335.784 619.157 335.429 610.636 340.226 604.723C342.891 601.593 345.378 598.985 347.865 596.898C344.667 596.376 341.292 595.507 337.916 593.594C333.475 591.159 329.211 586.638 327.789 580.552C326.368 574.465 327.434 567.335 330.81 558.467C332.942 553.076 337.028 548.728 342.18 547.337C347.155 545.772 352.129 546.989 356.215 548.902C358.88 549.946 361.368 551.511 363.677 553.25C363.855 550.467 364.388 547.337 365.454 544.381C367.408 538.99 371.85 533.425 378.956 531.513C381.621 530.991 384.286 530.643 387.129 530.643Z" fill="#5C6AC7"/>
<path d="M1049.21 336.645C1041.41 334.695 1034.1 333.233 1027.28 333.233C1012.66 333.233 1003.4 339.081 1000.47 350.779C999.5 353.703 999.5 355.652 999.5 356.627C999.5 362.963 1001.45 368.324 1005.84 373.198C1009.73 378.072 1014.61 380.996 1019.97 381.971H1022.41C1030.2 381.971 1038.98 377.097 1049.7 366.375C1053.6 362.476 1056.04 359.551 1057.01 357.602C1057.99 355.652 1058.47 352.728 1058.47 348.342V339.569L1049.21 336.645ZM1086.74 283.52C1096 277.672 1103.8 274.26 1109.65 274.26H1110.13C1111.6 274.26 1114.03 276.21 1117.93 279.134C1121.34 282.058 1123.78 284.983 1125.24 287.907C1127.19 291.806 1128.17 303.016 1128.17 321.048C1128.17 333.72 1127.68 343.468 1126.71 350.291C1125.73 357.114 1122.81 371.248 1117.93 392.693C1111.11 420.961 1107.7 438.506 1106.72 445.33C1105.75 451.666 1102.82 456.539 1097.95 459.951C1093.08 463.85 1087.72 465.312 1081.87 465.312C1073.58 465.312 1066.76 462.388 1060.91 456.052C1057.01 451.666 1055.06 446.304 1055.06 439.969V430.221L1046.78 434.12C1040.44 437.044 1032.15 438.506 1021.43 438.506C1010.22 438.506 1001.94 437.044 996.088 434.12C983.417 428.272 972.694 418.524 964.409 404.39C956.123 390.743 951.737 374.66 950.762 357.114V349.316C950.762 318.124 962.947 296.68 987.803 284.983C993.651 282.058 1005.84 280.596 1023.38 280.596C1040.44 280.596 1053.6 282.058 1063.35 284.983L1078.46 289.856L1086.74 283.52Z" fill="#2E0073"/>
<path d="M734.002 260.124C738.389 257.199 743.263 255.737 748.136 255.737C758.859 255.737 766.169 260.124 771.043 268.896C772.993 273.283 774.942 282.543 775.917 297.164L776.892 319.096L782.74 308.861C790.538 295.215 798.824 286.442 808.084 281.568C812.958 279.619 817.831 278.157 821.73 278.157C822.218 278.157 823.193 278.644 824.655 278.644C825.629 278.644 827.092 278.644 828.066 278.644C841.713 279.619 853.897 285.467 864.62 295.702C875.342 306.425 883.627 320.559 889.476 338.104C894.837 355.65 898.249 383.918 899.223 422.908C899.223 432.168 899.711 441.916 899.711 452.15C899.711 461.898 898.249 468.721 896.299 473.595C891.425 483.83 883.14 488.704 871.93 488.704C863.157 488.704 855.847 484.805 849.511 476.032C847.074 473.595 846.099 468.234 846.099 459.948V451.176V445.815C846.099 407.799 843.662 380.019 839.763 362.473C838.301 356.624 836.352 350.289 833.915 344.44C830.991 338.591 829.041 335.18 828.066 335.18C823.193 335.18 818.319 353.213 812.47 388.304C807.596 415.11 803.21 433.63 799.311 443.378C795.412 453.613 789.076 460.923 781.278 465.31C776.404 468.234 772.018 469.209 767.144 469.209C760.321 469.209 754.96 467.259 751.061 463.36C741.313 454.587 734.002 436.067 729.129 408.286C723.767 380.506 721.331 345.902 721.331 304.962C721.331 289.366 721.818 278.644 723.28 273.283C724.742 268.409 728.154 264.023 734.002 260.124Z" fill="#2E0073"/>
<path d="M458.446 203.587C464.294 201.637 468.193 200.175 470.143 200.175C472.58 200.175 476.479 201.637 482.327 203.587C487.201 206.511 490.612 209.923 493.537 214.797C495.974 220.158 497.436 238.191 497.436 269.383C497.436 320.07 498.898 360.522 502.797 389.765L504.746 406.336L512.057 400C516.931 396.101 522.292 393.664 528.141 393.664C546.174 393.664 555.434 403.412 555.434 422.907C555.434 447.276 545.686 463.359 526.678 472.132C518.393 476.031 511.082 477.493 504.746 477.493C478.428 477.493 460.882 454.099 451.135 406.336C447.723 390.74 445.774 376.119 444.799 361.985C443.824 348.338 443.824 323.482 443.824 288.391C443.824 254.762 443.824 234.292 444.312 227.468C444.312 220.645 445.286 215.771 447.236 212.847C449.673 208.948 453.572 206.024 458.446 203.587Z" fill="#2E0073"/>
<path d="M267.887 205.539C276.66 200.665 283.483 198.229 288.357 198.229C291.768 198.229 294.693 198.716 297.617 198.716C311.264 199.691 325.885 200.665 340.994 200.665C358.052 201.64 369.749 203.102 376.085 206.027C384.858 210.9 389.731 218.698 389.731 228.933C389.731 241.118 384.37 248.916 374.135 252.815C371.211 254.277 364.875 254.764 355.615 254.764C349.766 254.764 340.994 254.764 329.296 253.79C317.599 253.302 309.801 252.815 306.877 252.815C302.491 252.815 300.054 253.302 299.566 253.79C298.592 254.764 298.104 263.537 297.617 280.595L296.642 306.426C302.978 306.426 312.726 306.914 325.885 306.914C339.044 307.401 348.792 307.401 355.615 307.401L360.976 312.762C366.825 318.611 369.749 324.947 369.749 332.745C369.749 338.593 367.799 343.954 364.388 348.828C360.976 353.215 356.59 356.139 351.716 357.114C346.842 358.576 337.095 359.063 322.473 359.063H296.155V367.836C296.155 373.684 296.642 382.457 297.617 394.154C298.592 406.339 299.566 413.649 300.541 415.599C301.029 418.036 313.7 419.01 338.069 419.01C357.564 419.01 370.236 419.985 376.085 420.96C381.446 421.935 385.832 424.859 389.244 429.245C391.193 432.17 392.168 437.043 393.143 443.379V446.304C393.143 455.564 388.757 462.874 380.959 467.748C376.085 470.672 359.027 471.647 328.809 471.647C303.465 471.647 287.869 471.16 282.021 470.185C276.172 469.21 270.324 465.799 264.963 459.95C252.291 447.278 244.493 419.985 241.569 377.096C240.594 366.861 240.594 356.626 240.594 346.879C240.594 322.022 241.569 295.704 243.518 267.436C245.468 239.168 247.904 223.085 250.341 218.698C252.291 214.799 258.139 210.413 267.887 205.539Z" fill="#2E0073"/>
<path d="M641.214 298.14C650.961 298.14 658.273 302.527 663.146 310.325C665.096 314.224 666.558 319.585 666.558 325.433C666.558 329.332 665.096 353.214 662.659 397.078C660.222 430.219 658.273 450.201 657.298 456.538C655.836 463.361 652.424 468.235 647.55 472.134C644.626 475.058 639.752 476.033 632.929 476.033C622.694 476.033 614.895 471.646 609.534 462.386C607.585 459.462 606.61 454.588 606.61 448.74C606.61 443.866 607.098 432.656 608.072 416.085C608.072 411.212 609.048 400.002 610.022 381.969C610.997 363.936 611.484 351.752 612.459 344.928C613.434 328.358 614.896 317.635 616.846 312.761C618.308 307.888 622.207 303.989 628.542 301.065C632.441 299.115 636.34 298.14 641.214 298.14Z" fill="#2E0073"/>
<path d="M638.533 152.497C639.807 153.136 640.695 153.91 641.583 154.683C644.117 157.268 646.128 160.902 647.618 164.93C657.468 187.916 667.43 191.608 690.701 198.046C693.118 199.589 694.624 202.315 694.699 206.616C695.161 210.783 693.965 213.791 691.498 216.16C689.417 218.395 686.449 219.859 683.094 221.454L677.639 223.437C672.093 225.48 666.432 227.924 662.04 232.852C653.702 243.096 659.661 269.38 642.291 273.448L641.494 273.502C637.593 273.664 635.109 272.054 632.972 269.751C630.825 267.033 629.458 263.395 628.355 259.233C626.017 251.172 624.213 241.408 617.994 235.989C610.12 229.414 595.325 232.807 584.213 228.867L583.291 228.323C581.219 226.911 579.76 224.455 579.695 220.691C579.489 216.652 580.813 213.381 583.411 210.751C598.213 196.537 624.771 196.424 621.803 166.727C621.983 162.554 622.288 158.77 623.735 155.89C625.05 153.271 627.643 151.294 631.879 151.126C634.576 150.841 636.88 151.338 638.533 152.497Z" fill="#935CC7"/>
</svg>
